 http://www.torrentday.com - Your Key To The Scene.

 
http://www.torrentday.com :  Clean RAR Scene Releases!


Enjoy =)

...................................NFO:....................................

.      *********** ****    ****      ***      ******** *********** ****    *** **********
           *+*     +*+*+* *+*+*+   *+* *+*   *+*    *+*    *+*     *+*+*   *+* *+*        
           +*+     +*+ +*+*+ +*+  +*+   +*+  +*+           +*+     *+*+*+  +*+ +*+        
           +$+     +$+  +*+  +$+ +$++*++$++* *$*           +$+     +$+ +*+ +$+ +$++*++$  
           +$+     +$+       +$+ +$+     +$+ +$+   +$+$    +$+     +$+  +$+$+$ +$+        
           $+$     $+$       $+$ $+$     $+$ $+$    $+$    $+$     $+$   $+$+$ $+$        
       $$$$$$$$$$$ $$$       $$$ $$$     $$$  $$$$$$$$ $$$$$$$$$$$ $$$    $$$$ $$$$$$$$$$     
                                                



                           Another Fine Release Brought to you from - IMAGiNE                   
                                              http://imaginegroup.me/  
    
********************************************************************************************************************                                
                                 The Wolfman TS XViD - IMAGiNE
********************************************************************************************************************

Ripper ...........: IMAGiNE                                        IMDB Rating.......:6.8/10                             
Video Codec.......: XVID                                         Release Date......:02/03/10
Audio Codec.......:MP3                                           Theatre Date......:12/02/10
Audio Bitrate.....:128                                              Runtime.......:1h 36mn
Subtitles.........:ENG When needed                    Language..........:ENGLISH
Resolution...... 720 x 368                                      IMDb URL..........:http://www.imdb.com/title/tt0780653/


[color=yellow]DETAILS:[/color]

Video
ID                               : 0
Format                           : MPEG-4 Visual
Format profile                   : Advanced Simple@L5
Format settings, BVOP            : Yes
Format settings, QPel            : No
Format settings, GMC             : No warppoints
Format settings, Matrix          : Default (MPEG)
Muxing mode                      : Packed bitstream
Codec ID                         : XVID
Codec ID/Hint                    : XviD
Duration                         : 1h 36mn
Bit rate                         : 1 906 Kbps
Width                            : 720 pixels
Height                           : 368 pixels
Display aspect ratio             : 1.957
Frame rate                       : 23.976 fps
Resolution                       : 8 bits
Colorimetry                      : 4:2:0
Scan type                        : Progressive
Bits/(Pixel*Frame)               : 0.300
Stream size                      : 1.28 GiB (93%)
Writing library                  : XviD 1.2.1 (UTC 2008-12-04)

Audio
ID                               : 0
Format                           : MPEG Audio
Format version                   : Version 1
Format profile                   : Layer 3
Codec ID                         : 55
Codec ID/Hint                    : MP3
Duration                         : 1h 36mn
Bit rate mode                    : Constant
Bit rate                         : 128 Kbps
Channel(s)                       : 2 channels
Sampling rate                    : 44.1 KHz
Resolution                       : 16 bits
Stream size                      : 88.1 MiB (100%)


[color=yellow]NOTES:[/color]

IMAGiNE bringing you another release.....
Here we go with our first homemade video.......Audio though is a mixture of the direct off playoffs release
some cam audio,around 15 -30secs in total and most of that is for the end credits :P
Quality wise for our first go we're really pleased specially for such a dark movie.....also we've managed to get the whole
picture so now you can read the subs when there needed.
Audio isn't the best for direct but we've tried to clean it up some so....
Workdone.....well needed to straighten up the angle and clean it up a touch .....audio needed to be mixed up and then resynced
to the video.

Anyway enjoy :)

[color=yellow]SCREENS:[/color]

[IMG]http://imagine.takagari.com/THE%20WOLFMAN/vlcsnap-405023.png[/IMG]
[IMG]http://imagine.takagari.com/THE%20WOLFMAN/vlcsnap-405489.png[/IMG]
[IMG]http://imagine.takagari.com/THE%20WOLFMAN/vlcsnap-408047.png[/IMG]
[IMG]http://imagine.takagari.com/THE%20WOLFMAN/vlcsnap-408372.png[/IMG]
[IMG]http://imagine.takagari.com/THE%20WOLFMAN/vlcsnap-408857.png[/IMG]
[IMG]http://imagine.takagari.com/THE%20WOLFMAN/vlcsnap-409246.png[/IMG]


[color=yellow]GREETS:[/color]

FLAWL3SS,ViSiON,DEViSE,FUSiON,STG,SecretMyth,BirdFlu,ELEKTRI4KA
And to all the other p2p grps past and present 

Special thanks to Python-Lair for the server :)
And special thanks to supreme-speeds.com for the ripbox :)

[COLOR=RED]Looking for these,syncers,cammer,silver supplier.....Have anything to offer????......
Contact us imaginegroup@hushmail.com[/COLOR]